HIERARCHY
ROOT hips
{
  OFFSET 0 10.6860622 2.3727825e-15
  CHANNELS 6 Xposition Yposition Zposition Yrotation Xrotation Zrotation
  JOINT leftUpperLeg
  {
    OFFSET 0.6642549969 -0.9402397400000004 0
    CHANNELS 3 Yrotation Xrotation Zrotation
    JOINT leftLowerLeg
    {
      OFFSET 0 -3.997221335632195 0
      CHANNELS 3 Yrotation Xrotation Zrotation
      JOINT leftFoot
      {
        OFFSET -0.13777839790000004 -4.6145792000000005 -0.22186036399999998
        CHANNELS 3 Yrotation Xrotation Zrotation
        JOINT leftToes
        {
          OFFSET -0.03777410834999995 -0.9130806927000008 0.85230013
          CHANNELS 3 Yrotation Xrotation Zrotation
          End Site
          {
            OFFSET -0.03777410834999995 -0.9130806927000008 0.85230013
          }
        }
      }
    }
  }
  JOINT rightUpperLeg
  {
    OFFSET -0.6642778626 -0.9402397400000004 0
    CHANNELS 3 Yrotation Xrotation Zrotation
    JOINT rightLowerLeg
    {
      OFFSET 0 -3.997221452859387 0
      CHANNELS 3 Yrotation Xrotation Zrotation
      JOINT rightFoot
      {
        OFFSET 0.1377926176 -4.6145792000000005 -0.22185782299999995
        CHANNELS 3 Yrotation Xrotation Zrotation
        JOINT rightToes
        {
          OFFSET 0.037780746850000047 -0.9130806927000008 0.85230167
          CHANNELS 3 Yrotation Xrotation Zrotation
          End Site
          {
            OFFSET 0.037780746850000047 -0.9130806927000008 0.85230167
          }
        }
      }
    }
  }
  JOINT spine
  {
    OFFSET 0 0.13988381660000015 0
    CHANNELS 3 Yrotation Xrotation Zrotation
    JOINT chest
    {
      OFFSET 0 0.6191039003973773 0
      CHANNELS 3 Yrotation Xrotation Zrotation
      JOINT upperChest
      {
        OFFSET 0 0.9855186130586943 0
        CHANNELS 3 Yrotation Xrotation Zrotation
        JOINT leftShoulder
        {
          OFFSET 0.1807663869 1.5087829790000005 0
          CHANNELS 3 Yrotation Xrotation Zrotation
          JOINT leftUpperArm
          {
            OFFSET 0.5985063006419806 0 0
            CHANNELS 3 Yrotation Xrotation Zrotation
            JOINT leftLowerArm
            {
              OFFSET 2.2993332369501065 0 0
              CHANNELS 3 Yrotation Xrotation Zrotation
              JOINT leftHand
              {
                OFFSET 2.395047042602395 0 0
                CHANNELS 3 Yrotation Xrotation Zrotation
                JOINT leftIndexProximal
                {
                  OFFSET 0.5766295810000004 0.04556643899499946 0.17265095988184
                  CHANNELS 3 Yrotation Xrotation Zrotation
                  JOINT leftIndexIntermediate
                  {
                    OFFSET 0.2957229000000008 -0.019352197700001517 -0.007932640616999987
                    CHANNELS 3 Yrotation Xrotation Zrotation
                    JOINT leftIndexDistal
                    {
                      OFFSET 0.19008243099999922 -0.012484908149998475 -0.002786250786000012
                      CHANNELS 3 Yrotation Xrotation Zrotation
                      End Site
                      {
                        OFFSET 0.19008243099999922 -0.012484908149998475 -0.002786250786000012
                      }
                    }
                  }
                }
                JOINT leftMiddleProximal
                {
                  OFFSET 0.5834975091000001 0.0524350405149987 0.02204081888183999
                  CHANNELS 3 Yrotation Xrotation Zrotation
                  JOINT leftMiddleIntermediate
                  {
                    OFFSET 0.33880573540000003 -0.019871473270000717 -0.00000971183179999946
                    CHANNELS 3 Yrotation Xrotation Zrotation
                    JOINT leftMiddleDistal
                    {
                      OFFSET 0.20676022730000088 -0.012221336379999448 0.0001471936708000235
                      CHANNELS 3 Yrotation Xrotation Zrotation
                      End Site
                      {
                        OFFSET 0.20676022730000088 -0.012221336379999448 0.0001471936708000235
                      }
                    }
                  }
                }
                JOINT leftLittleProximal
                {
                  OFFSET 0.5344154683999995 -0.012880921405001189 -0.24414037221816004
                  CHANNELS 3 Yrotation Xrotation Zrotation
                  JOINT leftLittleIntermediate
                  {
                    OFFSET 0.21758961730000093 -0.011650919939999227 0.011893592810000034
                    CHANNELS 3 Yrotation Xrotation Zrotation
                    JOINT leftLittleDistal
                    {
                      OFFSET 0.1475273964999999 -0.008152365682999818 0.006001092492999946
                      CHANNELS 3 Yrotation Xrotation Zrotation
                      End Site
                      {
                        OFFSET 0.1475273964999999 -0.008152365682999818 0.006001092492999946
                      }
                    }
                  }
                }
                JOINT leftRingProximal
                {
                  OFFSET 0.5799399463000003 0.026911854694997794 -0.12150566991816003
                  CHANNELS 3 Yrotation Xrotation Zrotation
                  JOINT leftRingIntermediate
                  {
                    OFFSET 0.26167887460000006 -0.013480186499999602 0.010996293000000053
                    CHANNELS 3 Yrotation Xrotation Zrotation
                    JOINT leftRingDistal
                    {
                      OFFSET 0.17667108799999987 -0.008990287899999228 0.0055541023999999065
                      CHANNELS 3 Yrotation Xrotation Zrotation
                      End Site
                      {
                        OFFSET 0.17667108799999987 -0.008990287899999228 0.0055541023999999065
                      }
                    }
                  }
                }
                JOINT leftThumbProximal
                {
                  OFFSET 0.11018806699999972 -0.09448718900500053 0.17047963138184
                  CHANNELS 3 Yrotation Xrotation Zrotation
                  JOINT leftThumbIntermediate
                  {
                    OFFSET 0.31062601459999983 -0.08126270900000132 0.15443142000000007
                    CHANNELS 3 Yrotation Xrotation Zrotation
                    JOINT leftThumbDistal
                    {
                      OFFSET 0.21627175790000086 -0.08833193599999878 0.018771167799999988
                      CHANNELS 3 Yrotation Xrotation Zrotation
                      End Site
                      {
                        OFFSET 0.21627175790000086 -0.08833193599999878 0.018771167799999988
                      }
                    }
                  }
                }
              }
            }
          }
        }
        JOINT neck
        {
          OFFSET 0 1.5463305265074576 0
          CHANNELS 3 Yrotation Xrotation Zrotation
          JOINT head
          {
            OFFSET 0 0.8456443600000344 0
            CHANNELS 3 Yrotation Xrotation Zrotation
            JOINT leftEye
            {
              OFFSET 0.30408573140000006 0.5104519199999995 0.1276382305
              CHANNELS 3 Yrotation Xrotation Zrotation
              End Site
              {
                OFFSET 0.30408573140000006 0.5104519199999995 0.1276382305
              }
            }
            JOINT rightEye
            {
              OFFSET -0.30409491089999996 0.5104519199999995 0.1276379445
              CHANNELS 3 Yrotation Xrotation Zrotation
              End Site
              {
                OFFSET -0.30409491089999996 0.5104519199999995 0.1276379445
              }
            }
            JOINT jaw
            {
              OFFSET -3.155239131000001e-7 -0.11984121820000082 0.60178107
              CHANNELS 3 Yrotation Xrotation Zrotation
              End Site
              {
                OFFSET -3.155239131000001e-7 -0.11984121820000082 0.60178107
              }
            }
          }
        }
        JOINT rightShoulder
        {
          OFFSET -0.1807303465 1.5087829790000005 0
          CHANNELS 3 Yrotation Xrotation Zrotation
          JOINT rightUpperArm
          {
            OFFSET -0.5985063796536958 0 0
            CHANNELS 3 Yrotation Xrotation Zrotation
            JOINT rightLowerArm
            {
              OFFSET -2.2993322059002854 0 0
              CHANNELS 3 Yrotation Xrotation Zrotation
              JOINT rightHand
              {
                OFFSET -2.395045314457259 0 0
                CHANNELS 3 Yrotation Xrotation Zrotation
                JOINT rightIndexProximal
                {
                  OFFSET -0.5764487688300002 0.0441371204405987 0.17361932004999997
                  CHANNELS 3 Yrotation Xrotation Zrotation
                  JOINT rightIndexIntermediate
                  {
                    OFFSET -0.29573011380000047 -0.01934826376999843 -0.007698921482999974
                    CHANNELS 3 Yrotation Xrotation Zrotation
                    JOINT rightIndexDistal
                    {
                      OFFSET -0.19008373999999884 -0.012503266380000655 -0.0026365778999999897
                      CHANNELS 3 Yrotation Xrotation Zrotation
                      End Site
                      {
                        OFFSET -0.19008373999999884 -0.012503266380000655 -0.0026365778999999897
                      }
                    }
                  }
                }
                JOINT rightMiddleProximal
                {
                  OFFSET -0.5834852037300005 0.05211639405060153 0.02307162440000001
                  CHANNELS 3 Yrotation Xrotation Zrotation
                  JOINT rightMiddleIntermediate
                  {
                    OFFSET -0.33880114510000003 -0.019952774050000954 0.0002455003561999819
                    CHANNELS 3 Yrotation Xrotation Zrotation
                    JOINT rightMiddleDistal
                    {
                      OFFSET -0.20675694929999955 -0.012273788999999091 0.00030209124000002766
                      CHANNELS 3 Yrotation Xrotation Zrotation
                      End Site
                      {
                        OFFSET -0.20675694929999955 -0.012273788999999091 0.00030209124000002766
                      }
                    }
                  }
                }
                JOINT rightLittleProximal
                {
                  OFFSET -0.5346811737299992 -0.011214256288399227 -0.24363941305000003
                  CHANNELS 3 Yrotation Xrotation Zrotation
                  JOINT rightLittleIntermediate
                  {
                    OFFSET -0.21757715980000092 -0.011771559690000988 0.01201554387
                    CHANNELS 3 Yrotation Xrotation Zrotation
                    JOINT rightLittleDistal
                    {
                      OFFSET -0.1475201849000004 -0.00822055339600003 0.006082065407000015
                      CHANNELS 3 Yrotation Xrotation Zrotation
                      End Site
                      {
                        OFFSET -0.1475201849000004 -0.00822055339600003 0.006082065407000015
                      }
                    }
                  }
                }
                JOINT rightRingProximal
                {
                  OFFSET -0.5800810755299999 0.027657985680600072 -0.12066365025000003
                  CHANNELS 3 Yrotation Xrotation Zrotation
                  JOINT rightRingIntermediate
                  {
                    OFFSET -0.26166445029999974 -0.013623118409999302 0.011164098990000045
                    CHANNELS 3 Yrotation Xrotation Zrotation
                    JOINT rightRingDistal
                    {
                      OFFSET -0.17666387530000027 -0.009072900100000503 0.005668185599999959
                      CHANNELS 3 Yrotation Xrotation Zrotation
                      End Site
                      {
                        OFFSET -0.17666387530000027 -0.009072900100000503 0.005668185599999959
                      }
                    }
                  }
                }
                JOINT rightThumbProximal
                {
                  OFFSET -0.10997596379000074 -0.09577489355940072 0.16989765924999997
                  CHANNELS 3 Yrotation Xrotation Zrotation
                  JOINT rightThumbIntermediate
                  {
                    OFFSET -0.31036620999999986 -0.08229339117999834 0.15440884469999996
                    CHANNELS 3 Yrotation Xrotation Zrotation
                    JOINT rightThumbDistal
                    {
                      OFFSET -0.21631306399999906 -0.08825326400000111 0.018656797720000014
                      CHANNELS 3 Yrotation Xrotation Zrotation
                      End Site
                      {
                        OFFSET -0.21631306399999906 -0.08825326400000111 0.018656797720000014
                      }
                    }
                  }
                }
              }
            }
          }
        }
      }
    }
  }
}
MOTION
Frames: 9
Frame Time: 0.03333333333333333
0 11.682712981546562 0 0 0 0 0 0 -5.826343164929014 -0.3712483961610101 -3.6333298826370974 5.838118207697276 0 0 0 0 0 0 0 0 5.826343164929014 0.3712483961610101 -3.6333298826370974 -5.838118207697276 0 0 0 0 0 0 0 -4.610651315171937 0 0 3.0831277533083026 0 0 0 0 0 1.5275236235667615 0 0 0 0 0 0 0 0 0 0 0 0 0 0 0 0 0 0 0 0 0 0 0 0 0 0 0 0 0 0 0 0 0 0 0 0 0 0 0 0 0 0 0 0 0 0 0 0 0 0 0 0 0 0 0 0 1.5275236235667615 0 0 0 0 0 0 0 0 0 0 0 0 0 0 1.5275236235667615 0 0 0 0 0 0 0 0 0 0 0 0 0 0 0 0 0 0 0 0 0 0 0 0 0 0 0 0 0 0 0 0 0 0 0 0 0 0 0 0 0 0 0 0 0 0 0 0 0 0 0 0 0 0 0
5.366741260317381 -10.258643182632323 7.60630567723567 0 78.99911787645615 0 47.08723989252038 6.787685093071583 7.563827997507528 19.66883486672966 -6.023493208644843 0.24713918093536036 -2.4623831565743286 47.1422466378719 1.244030126817621 0 0 0 -43.15270048828084 1.475492264712574 -5.126920013875568 -20.412584111862508 7.814002848129866 -3.1547803300037334 -7.9291562624543905 49.41375769571504 -6.914100925371433 0 0 0 -0.09351447013976597 23.19220682592311 -0.22651933620700127 -1.1596458352429255 -21.37067697952116 -0.8949338787178286 0 0 0 -5.609239358243916 1.2485942238244645 -8.011388607909 20.606095081686856 -42.84448199729606 -37.98616988789771 -46.0120411136464 13.427328132819875 37.1190115712811 -35.46523140275961 -15.56231817817731 20.2293537708759 0 0 0 0 0 0 0 0 0 0 0 0 0 0 0 0 0 0 0 0 0 0 0 0 0 0 0 0 0 0 0 0 0 0 0 0 0 0 0 0 0 0 0 0 0 -44.05575534093536 2.5306966696390467 -2.4506898038011298 -26.832421493873753 -13.781451210701352 6.808753237303146 0 0 0 0 0 0 0 0 0 -14.474556731269555 2.203764284633329 50.35148155382901 -13.807495772551789 -42.525255063171585 43.689864399931366 40.736611523342305 6.340098743569762 -37.81082867433274 32.608737541739316 -5.0384418154891275 -2.8878329709944395 0 0 0 0 0 0 0 0 0 0 0 0 0 0 0 0 0 0 0 0 0 0 0 0 0 0 0 0 0 0 0 0 0 0 0 0 0 0 0 0 0 0 0 0 0
5.366741260317381 -10.258643182632323 7.60630567723567 0 78.6658741565656 0 47.289280079040424 6.895848547136426 7.935630089613363 19.682404639666014 -5.775891343159381 0.14782826373589472 -2.616407418246454 47.04224969010895 1.3027843365090754 0 0 0 -44.31266953380535 1.6311079070121726 -5.641753786287549 -20.412584111862508 7.814002848129866 -3.1547803300037334 -6.89627052945119 49.398175259152026 -7.130272188817924 0 0 0 -0.10377171942484875 22.17379551328867 -0.26392467588432444 -1.1396647064369545 -19.041369237506473 -0.9927008187715374 0 0 0 -5.836041980494843 2.247297102690376 -7.645324907333024 20.178834034314317 -43.10016983687469 -37.703763440777166 -45.99984459970776 13.417891443034794 37.11422054838117 -35.19588789214348 -16.02019839559198 21.944408991674713 0 0 0 0 0 0 0 0 0 0 0 0 0 0 0 0 0 0 0 0 0 0 0 0 0 0 0 0 0 0 0 0 0 0 0 0 0 0 0 0 0 0 0 0 0 -44.03860520436999 2.0920456918978805 -2.025893576473337 -27.441766010816966 -13.998709534937475 6.802851938960918 0 0 0 0 0 0 0 0 0 -13.749344208124658 0.7570159994450419 50.236977397463036 -14.050204511871039 -41.82708353470644 43.11647228230824 40.451870471893265 6.2228083549612805 -37.43588532306443 32.5174996222797 -5.46153104225475 -4.109601841618681 0 0 0 0 0 0 0 0 0 0 0 0 0 0 0 0 0 0 0 0 0 0 0 0 0 0 0 0 0 0 0 0 0 0 0 0 0 0 0 0 0 0 0 0 0
5.366741260317381 -10.258643182632323 7.60630567723567 0 78.33258775995793 0 47.49209013902829 7.0027322212711445 8.307965823316115 19.695528497194136 -5.528246268135487 0.04861029775191229 -2.770304621528832 46.94235978791326 1.3618247792642275 0 0 0 -45.47638227920407 1.7765412959335671 -6.160700789111605 -20.412584111862508 7.814002848129866 -3.1547803300037334 -5.861758870607466 49.38512109931951 -7.347166314078876 0 0 0 -0.11325606217690609 21.15408411619216 -0.30091714194494845 -1.1240008548698972 -16.696003100894366 -1.0889968610818446 0 0 0 -6.056954748229173 3.248881833113889 -7.282391008737789 19.74794559326938 -43.35434198435942 -37.417480685506426 -45.98764669210666 13.408457757113828 37.10941938457237 -34.939241973867084 -16.487663189183838 23.66867935431143 0 0 0 0 0 0 0 0 0 0 0 0 0 0 0 0 0 0 0 0 0 0 0 0 0 0 0 0 0 0 0 0 0 0 0 0 0 0 0 0 0 0 0 0 0 -44.02473064604099 1.6530804710746976 -1.6011422984535113 -28.0519876389986 -14.216126756014928 6.79932796072689 0 0 0 0 0 0 0 0 0 -13.020226041496665 -0.6902011718633141 50.10399953129968 -14.299909428949785 -41.12983822866086 42.54456112393677 40.166326068955655 6.1073378517570855 -37.060319809231984 32.435140035930914 -5.887354191908417 -5.334153241908402 0 0 0 0 0 0 0 0 0 0 0 0 0 0 0 0 0 0 0 0 0 0 0 0 0 0 0 0 0 0 0 0 0 0 0 0 0 0 0 0 0 0 0 0 0
5.366741260317381 -10.258643182632323 7.60630567723567 0 77.99926780723081 0 47.69568586121519 7.108324429341426 8.68084095735079 19.708222734343686 -5.2805598460562155 -0.05051763938375088 -2.924073709683703 46.8425610515985 1.4211510726836711 0 0 0 -46.643462971458895 1.9116281208022923 -6.683440575830009 -20.412585727183927 7.814002848129866 -3.15477968465159 -4.825806781002108 49.37460893565858 -7.564677605333833 0 0 0 -0.12198452268071452 20.133227620911995 -0.33752319107836426 -1.112525565804149 -14.336415804511805 -1.1841112084437653 0 0 0 -6.272028802085115 4.253120943503246 -6.922459316822259 19.313451745184672 -43.60699854317005 -37.12734474028377 -45.975432410519 13.399020053136978 37.10461367996609 -34.69588562459117 -16.964162635047362 25.40159104328617 0 0 0 0 0 0 0 0 0 0 0 0 0 0 0 0 0 0 0 0 0 0 0 0 0 0 0 0 0 0 0 0 0 0 0 0 0 0 0 0 0 0 0 0 0 -44.01410008155146 1.2138497804696988 -1.1764084876143166 -28.66304369303445 -14.433665029206669 6.79818664159483 0 0 0 0 0 0 0 0 0 -12.28654781390961 -2.137064456642865 49.952327976990084 -14.556446021552063 -40.43370664685901 41.97397574734831 39.880013721165824 5.993699741486358 -36.68416361401569 32.36175339887838 -6.315617898274334 -6.561312564582208 0 0 0 0 0 0 0 0 0 0 0 0 0 0 0 0 0 0 0 0 0 0 0 0 0 0 0 0 0 0 0 0 0 0 0 0 0 0 0 0 0 0 0 0 0
5.366741260317381 -10.258643182632323 7.60630567723567 0 77.66590615162693 0 47.900063083941525 7.212611737393165 9.054240306400507 19.720481672515458 -5.032835643889024 -0.1495580771824837 -3.0777165581798633 46.742887556541035 1.4807607753097025 0 0 0 -47.81356848006089 2.0362168507940672 -7.209648953765971 -20.412584111862508 7.814002848129866 -3.1547803300037334 -3.7885976601791 49.366626648605184 -7.782690303613356 0 0 0 -0.12997456353961281 19.111388739102313 -0.373768300656842 -1.1051349597927291 -11.96450154899608 -1.2783169924354956 0 0 0 -6.481301041610665 5.259784230945264 -6.565399778465422 18.87526840596982 -43.85806375307013 -36.83326484073825 -45.96323406341294 13.389587107615027 37.09980767046164 -34.46638440292511 -17.449087238056702 27.14255426432369 0 0 0 0 0 0 0 0 0 0 0 0 0 0 0 0 0 0 0 0 0 0 0 0 0 0 0 0 0 0 0 0 0 0 0 0 0 0 0 0 0 0 0 0 0 -44.00671697745251 0.7744021977860289 -0.7516688632026506 -29.27495136489274 -14.651293431351265 6.79945116248154 0 0 0 0 0 0 0 0 0 -11.547672621450886 -3.5827346487918805 49.781843897126635 -14.819636350570615 -39.73885511956143 41.4045923299344 39.59294200210836 5.881909587637588 -36.30741940933741 32.2974694919219 -6.746026570679505 -7.790907919247736 0 0 0 0 0 0 0 0 0 0 0 0 0 0 0 0 0 0 0 0 0 0 0 0 0 0 0 0 0 0 0 0 0 0 0 0 0 0 0 0 0 0 0 0 0
5.366741260317381 -10.258643182632323 7.60630567723567 0 77.33251076482463 0 48.10518398253366 7.315591443719838 9.428143795145191 19.732304437701668 -4.78507764520944 -0.24851307963072444 -3.231229536108432 46.643293538661375 1.540654129637543 0 0 0 -48.986307694193265 2.1501679527882125 -7.7389924413239575 -20.41258129426812 7.814001124578789 -3.1547792544168276 -2.750331078815106 49.36123068544253 -8.00111000084831 0 0 0 -0.1372433130762628 18.088727445595037 -0.4096746154820463 -1.101750964824219 -9.582219958764915 -1.3718772687861847 0 0 0 -6.684817122297762 6.268648046905039 -6.21108524409412 18.433396661427665 -44.107527081527564 -36.535245081017514 -45.951031792038115 13.38015365416261 37.09500907218507 -34.25128404610374 -17.941798934149038 28.890978914836126 0 0 0 0 0 0 0 0 0 0 0 0 0 0 0 0 0 0 0 0 0 0 0 0 0 0 0 0 0 0 0 0 0 0 0 0 0 0 0 0 0 0 0 0 0 -44.00261237237422 0.3347865887477976 -0.3268966767706183 -29.887669244453747 -14.868958839188283 6.803119551745714 0 0 0 0 0 0 0 0 0 -10.802915800347867 -5.026371164900699 49.592269470219264 -15.089313340224189 -39.04546975877597 40.836255541315275 39.30514194257486 5.771976995541272 -35.93011874166998 32.24237221417062 -7.178275330818482 -9.022767015599367 0 0 0 0 0 0 0 0 0 0 0 0 0 0 0 0 0 0 0 0 0 0 0 0 0 0 0 0 0 0 0 0 0 0 0 0 0 0 0 0 0 0 0 0 0
5.366741260317381 -10.258643182632323 7.60630567723567 0 76.99910370187574 0 48.311042176225705 7.417248345536047 9.80254001071283 19.74369147687981 -4.537288537297758 -0.34738638599396426 -3.384619162598526 46.54381798133329 1.6008254380266793 0 0 0 -50.16128797716654 2.253362292332836 -8.271121602079312 -20.412584111862508 7.814002848129866 -3.1547803300037334 -1.7111949485012479 49.35840446483598 -8.219820954624993 0 0 0 -0.14380379763678502 17.065412353654416 -0.4452655665818015 -1.1023154079795512 -7.191588173428969 -1.4650496523187202 0 0 0 -6.882606486964301 7.279477133079893 -5.859385366363272 17.98779478727448 -44.35533953285026 -36.233248467301465 -45.93882559473817 13.37072144770501 37.09019329844342 -34.05110678948824 -18.441649900855264 30.64627305566385 0 0 0 0 0 0 0 0 0 0 0 0 0 0 0 0 0 0 0 0 0 0 0 0 0 0 0 0 0 0 0 0 0 0 0 0 0 0 0 0 0 0 0 0 0 -44.00175583746965 -0.10494736936426752 0.09793543503676481 -30.501180664914898 -15.08663002438855 6.8092023315668 0 0 0 0 0 0 0 0 0 -10.051622247666153 -6.467126009059928 49.38339109150311 -15.36535037177202 -38.35373838644799 40.26889214268078 39.01662483995078 5.663917628841261 -35.552279554310076 32.196573212532556 -7.6120579767161916 -10.256712842383594 0 0 0 0 0 0 0 0 0 0 0 0 0 0 0 0 0 0 0 0 0 0 0 0 0 0 0 0 0 0 0 0 0 0 0 0 0 0 0 0 0 0 0 0 0
5.366741260317381 -10.258643182632323 7.60630567723567 -0.000004335897241163594 76.66567495110625 -0.00000421900537768075 48.51764066094374 7.517576685414352 10.177424205612322 19.754648969845345 -4.289471854557535 -0.4461807688462161 -3.5378843762179963 46.444445066451614 1.6612739587649403 0 0 0 -51.338150512094906 2.3456900955346467 -8.805692825547467 -20.412585727183927 7.814002848129866 -3.15477968465159 -0.6713814498915376 49.35816851684358 -8.438715550071525 0 0 0 -0.14967191507956137 16.04159441652438 -0.4805624447951933 -1.106795189407782 -4.794658856941246 -1.5580805723905873 0 0 0 -7.074704527552994 8.292046982429232 -5.5101736374640895 17.538454066103807 -44.60147999015494 -35.92726207751396 -45.92662287480274 13.36128961031387 37.08538773521251 -33.86632239179609 -18.94792581125373 32.40782783708256 0 0 0 0 0 0 0 0 0 0 0 0 0 0 0 0 0 0 0 0 0 0 0 0 0 0 0 0 0 0 0 0 0 0 0 0 0 0 0 0 0 0 0 0 0 -44.00415910241373 -0.5447511184100766 0.5228509789247898 -31.11546749237864 -15.30427474454076 6.817712431151862 0 0 0 0 0 0 0 0 0 -9.293112207726148 -7.904147444164559 49.15494784780741 -15.647561267373312 -37.663820591280476 39.702354853206714 38.72741167168556 5.557740335834427 -35.17391828184653 32.16014519602512 -8.047061620805138 -11.492572753413574 0 0 0 0 0 0 0 0 0 0 0 0 0 0 0 0 0 0 0 0 0 0 0 0 0 0 0 0 0 0 0 0 0 0 0 0 0 0 0 0 0 0 0 0 0
